# xmcd
# 
# Track frame offsets:
#     150
#     17063
#     31894
#     46690
#     62304
#     74259
#     93898
#     110755
#     133908
#     149649
#     171686
#     196624
#     209526
#     227404
#     241553
#     261261
# 
# Disc length: 3612
# 
# Revision: 3
# Processed by: cddbd v1.5.2PL0 Copyright (c) Steve Scherf et al.
# Submitted via: fre:ac v1.0.17
# 
DISCID=dd0e1a10
DTITLE=Various Artist - The Gift - A Tribute To Ian Tyson
DYEAR=2007
DGENRE=Country
TTITLE0=Blue Rodeo - Four Strong Winds
TTITLE1=Corb Lund - MC Horses
TTITLE2=Jennifer Warnes - Blue Mountains Of Mexico
TTITLE3=Chris Hillman - What Does She See
TTITLE4=Gordon Lightfoot - Red Velvet
TTITLE5=David Rea - The Gift
TTITLE6=Cindy Church - Range Delivery
TTITLE7=The McDades - Smugglers Cove
TTITLE8=Amos Garrett - Some Kind Of Fool
TTITLE9=Tom Russell - Old Cheyenne
TTITLE10=The Circus In Flames with Buddy Cage - Someday Soon
TTITLE11=Ramblin' Jack Elliott - Will James
TTITLE12=Stewart MacDougall - You're Not Alone Anymore
TTITLE13=The Good Brothers - Summer Wages
TTITLE14=Jeff Bradshaw - Moondancer
TTITLE15=Ramblin' Jack Elliott with Buddy Cage - Bonus Track Interview
EXTD=
EXTT0=
EXTT1=
EXTT2=
EXTT3=
EXTT4=
EXTT5=
EXTT6=
EXTT7=
EXTT8=
EXTT9=
EXTT10=
EXTT11=
EXTT12=
EXTT13=
EXTT14=
EXTT15=
PLAYORDER=
